<svg width="1006" height="1425" viewBox="0 0 1006 1425" fill="none" xmlns="http://www.w3.org/2000/svg">
<g clip-path="url(#clip0_1_717)">
<path d="M545.956 674.518C544.788 680.052 544.246 685.732 542.788 691.185C541.245 697.025 539.412 703.572 531.701 703.612C524.157 703.612 521.824 697.692 520.322 691.518C516.113 673.852 511.612 656.265 504.444 639.425C501.442 632.372 497.441 626.118 492.606 618.878C527.825 599.705 556.5 574.158 582.174 545.105C584.549 542.398 586.258 539.772 590.342 542.972C607.348 556.358 628.062 561.945 647.568 570.105C651.402 571.692 655.236 573.439 658.778 575.612C674.866 585.412 675.325 604.865 659.529 615.412C647.276 623.585 633.064 626.332 618.809 628.505C610.932 629.665 603.013 630.039 595.094 630.799C568.086 633.292 551.498 648.012 545.956 674.518ZM441.384 622.452C409.874 632.998 376.657 632.625 343.73 630.999C296.968 628.705 252.664 615.665 210.944 595.652C180.352 580.985 156.428 556.279 133.38 531.812C85.5743 481.039 52.6904 421.398 33.9344 354.385C15.3464 287.745 24.6397 224.638 58.8584 164.158C105.913 80.8918 179.976 36.3319 271.128 26.4119C384.368 14.0785 476.852 56.7184 540.912 153.905C563.293 187.838 581.549 223.798 596.469 261.558C600.304 271.238 598.762 278.532 592.926 286.652C567.961 321.545 536.91 350.252 503.318 376.518C502.152 377.385 500.317 377.558 501.109 379.718C514.821 381.012 548.914 355.092 605.848 300.079C614.933 316.745 613.641 328.785 601.68 341.665C585.717 358.799 569.921 376.012 554.041 393.185C552.582 394.772 550.373 396.012 551.957 400.772C576.548 391.345 594.136 372.172 615.558 356.252C617.392 378.638 621.56 399.318 601.262 416.105C582.174 431.945 565.128 450.239 547.122 467.412C544.83 469.585 539.912 471.078 542.537 474.838C544.621 477.878 548.956 475.078 551.624 473.705C568.461 465.078 583.09 453.238 597.594 441.238C601.346 438.158 605.222 435.158 609.014 432.118C609.932 431.825 610.806 431.492 611.724 431.199C611.682 432.199 611.682 433.199 611.682 434.199C606.681 464.039 597.512 492.345 579.714 517.092C544.372 566.238 499.192 603.118 441.384 622.452ZM1004.67 1331.75C997.166 1257.89 969.242 1194.59 905.974 1150.81C884.218 1135.73 861.794 1121.52 842.122 1103.64C816.449 1080.39 799.694 1052.08 792.692 1017.83C787.565 992.692 791.692 968.105 794.526 943.385C796.485 926.132 799.986 908.878 797.485 891.452C791.274 847.732 770.144 812.892 734.801 786.252C710.918 768.252 684.745 753.372 662.321 733.492C639.94 713.692 622.185 690.478 613.725 661.092C611.724 654.092 611.932 650.465 621.06 650.092C636.314 649.505 650.736 644.798 664.614 638.385C682.702 629.998 693.164 616.545 694.414 596.372C695.664 576.612 684.536 564.572 668.657 555.852C661.738 552.025 654.236 549.225 646.901 546.145C633.646 540.639 619.893 536.345 607.722 528.305C601.68 524.345 600.178 521.718 604.264 514.385C624.81 477.372 634.938 437.078 637.106 395.105C641.024 318.545 620.393 248.225 584.216 180.958C538.245 95.4785 473.601 34.7052 377.908 9.41187C326.685 -4.1348 276.296 -1.46813 235.409 7.41187C187.394 21.9985 151.26 37.5851 118.584 61.1718C74.2384 93.2251 43.729 135.492 22.681 185.212C1.25836 235.932 -6.57631 288.825 6.09302 342.705C26.7664 430.732 68.1944 507.252 138.297 566.318C160.012 584.612 182.602 602.612 208.442 613.999C238.742 627.332 270.001 638.758 303.136 644.678C358.277 654.505 412.168 652.545 464.641 631.665C471.976 628.745 474.893 630.505 477.853 637.385C486.688 657.972 493.024 679.385 499.192 700.812C502.985 713.905 511.862 720.985 525.282 722.652C538.828 724.358 548.748 718.772 555.917 707.612C560.75 700.105 562.293 691.478 564.044 682.972C565.628 675.145 567.92 667.598 573.254 661.305C577.922 655.758 580.173 654.972 583.257 663.172C599.72 706.852 624.228 744.825 663.238 771.958C681.244 784.465 700.166 795.798 717.629 809.052C750.722 834.145 771.52 867.105 775.562 909.038C777.521 929.425 772.728 949.678 771.228 970.012C769.393 995.185 771.061 1019.91 780.189 1043.67C797.068 1087.55 827.91 1119.27 867.756 1142.89C930.022 1179.83 968.576 1234.01 984.788 1304.24C990.248 1327.95 987.414 1350.83 975.618 1372.33C960.74 1399.43 939.525 1409.15 909.309 1402.72C897.097 1400.13 884.885 1397.39 874.924 1389.09C873.34 1387.8 871.881 1386.6 870.172 1388.47C868.713 1390.05 868.964 1391.64 870.422 1393.43C872.048 1395.43 872.924 1398.01 874.549 1400.05C898.305 1430.56 951.362 1433.52 977.62 1405.27C996.708 1384.72 1007.5 1359.8 1004.67 1331.75Z" fill="#434343"></path>
<path d="M659.529 615.413C647.276 623.587 633.064 626.333 618.809 628.507C610.932 629.667 603.013 630.04 595.094 630.8C568.086 633.293 551.498 648.013 545.956 674.52C544.788 680.053 544.246 685.733 542.788 691.186C541.245 697.026 539.412 703.573 531.701 703.613C524.157 703.613 521.824 697.693 520.322 691.52C516.113 673.853 511.612 656.267 504.444 639.427C501.442 632.373 497.441 626.12 492.606 618.88C527.825 599.707 556.5 574.16 582.174 545.107C584.549 542.4 586.258 539.773 590.342 542.973C607.348 556.36 628.062 561.947 647.568 570.107C651.402 571.693 655.236 573.44 658.778 575.613C674.866 585.413 675.325 604.867 659.529 615.413Z" fill="#E45457"></path>
<path d="M211.777 499.427C207.817 502.547 202.607 503.427 199.231 500.093C185.102 486.253 169.598 473.627 158.429 457C156.135 453.614 155.969 449.653 159.221 446.707C162.513 443.653 166.263 444.534 169.473 447.2C182.477 458.04 195.481 468.827 208.275 479.92C211.026 482.293 212.818 485.8 214.486 488.053C214.986 492.92 215.111 496.8 211.777 499.427ZM137.797 420.36C130.921 425.147 121.71 420.733 114.541 408.44C92.8674 371.267 75.4047 332.374 68.6114 289.534C66.1101 273.774 67.5274 257.894 70.6527 242.267C71.4861 237.894 73.6954 234.227 78.7807 234.44C83.2821 234.6 83.2394 238.813 84.4487 242.48C85.8661 256.56 86.2821 271.4 88.9914 285.827C96.3687 325.373 112.039 361.68 135.213 394.56C143.882 406.893 145.174 415.28 137.797 420.36ZM597.594 441.24C583.09 453.24 568.461 465.08 551.623 473.707C548.955 475.08 544.621 477.88 542.537 474.84C539.911 471.08 544.83 469.587 547.122 467.413C565.127 450.24 582.174 431.947 601.262 416.107C621.559 399.32 617.391 378.64 615.558 356.253C594.135 372.173 576.547 391.347 551.957 400.773C550.373 396.013 552.582 394.773 554.041 393.187C569.921 376.013 585.717 358.8 601.679 341.667C613.641 328.787 614.933 316.747 605.847 300.08C548.914 355.093 514.821 381.013 501.109 379.72C500.317 377.56 502.151 377.387 503.318 376.52C536.91 350.253 567.961 321.547 592.926 286.653C598.762 278.533 600.303 271.24 596.469 261.56C581.549 223.8 563.293 187.84 540.911 153.907C476.851 56.72 384.367 14.0801 271.127 26.4134C179.975 36.3334 105.913 80.8934 58.8581 164.16C24.6394 224.64 15.3461 287.747 33.9341 354.387C52.6901 421.4 85.5741 481.04 133.379 531.813C156.427 556.28 180.351 580.987 210.943 595.653C252.663 615.667 296.967 628.707 343.73 631C376.657 632.627 409.874 633 441.383 622.453C499.191 603.12 544.371 566.24 579.714 517.093C597.511 492.347 606.681 464.04 611.682 434.2C611.682 433.2 611.682 432.2 611.723 431.2C610.806 431.494 609.931 431.827 609.014 432.12C605.222 435.16 601.346 438.16 597.594 441.24Z" fill="#F56D6E"></path>
<path d="M137.797 420.36C130.921 425.147 121.71 420.733 114.541 408.44C92.8673 371.267 75.4047 332.374 68.6113 289.534C66.11 273.774 67.5274 257.894 70.6527 242.267C71.486 237.894 73.6954 234.227 78.7807 234.44C83.282 234.6 83.2394 238.814 84.4487 242.48C85.866 256.56 86.282 271.4 88.9914 285.827C96.3687 325.374 112.039 361.68 135.213 394.56C143.882 406.894 145.174 415.28 137.797 420.36Z" fill="#F4F4F4"></path>
<path d="M211.777 499.427C207.817 502.547 202.608 503.427 199.232 500.094C185.103 486.254 169.599 473.627 158.429 457.001C156.136 453.614 155.969 449.654 159.221 446.707C162.513 443.654 166.264 444.534 169.473 447.201C182.477 458.041 195.481 468.827 208.276 479.92C211.027 482.294 212.819 485.8 214.487 488.054C214.987 492.92 215.112 496.801 211.777 499.427Z" fill="#F4F4F4"></path>
</g>
<defs>
<clipPath id="clip0_1_717">
<rect width="1005.12" height="1424.8" fill="white"></rect>
</clipPath>
</defs>
</svg>