<svg width="636" height="627" viewBox="0 0 636 627" fill="none" xmlns="http://www.w3.org/2000/svg">
<g clip-path="url(#clip0_1_336)">
<path d="M311.671 601.76C153.852 600.68 25.3166 470.48 28.9712 310.293C32.5006 153.56 153.147 22.7867 326.618 23.9467C484.685 25.0267 613.138 153.813 612.271 310.387C611.311 473.933 478.245 602.92 311.671 601.76ZM633.111 271.253C615.965 124.28 485.725 4.21333 337.298 0.146663C228.815 -2.8 139.65 38.6534 70.3352 122.04C2.7659 203.36 -14.3448 296.92 11.4032 397.173C46.0819 532.107 173.663 626.093 316.405 626.587C334.671 626.76 352.911 625.507 370.885 622.32C539.751 592.534 652.885 440.947 633.111 271.253Z" fill="#434343"></path>
<path d="M580.791 374.881C573.804 379.867 565.217 381.934 556.697 383.107C550.844 382.521 545.697 380.694 541.337 376.787C538.337 374.174 537.804 370.761 539.084 367.401C540.457 363.747 544.484 363.867 546.857 365.041C557.191 370.187 564.831 363.587 573.311 359.974C581.071 356.694 593.03 349.414 596.604 356.441C600.964 365.081 587.644 369.974 580.791 374.881ZM553.244 437.921C541.791 452.374 527.497 461.974 506.111 462.347C502.671 462.134 497.017 461.467 493.151 456.614C490.084 452.787 487.711 448.681 491.164 443.734C494.657 438.787 498.884 438.507 503.284 442.027C509.351 446.894 514.537 444.147 519.604 440.574C527.417 435.134 535.937 431.107 544.564 427.294C548.431 425.587 551.964 424.961 554.991 428.707C557.937 432.401 555.164 435.507 553.244 437.921ZM533.231 500.254C526.257 509.187 517.537 514.921 503.537 515.374C498.724 514.881 491.324 513.334 490.124 505.081C489.004 497.307 495.11 496.147 501.67 494.654C509.057 492.947 515.71 488.334 522.937 485.601C526.924 484.107 531.817 483.227 534.897 487.307C538.297 491.787 536.351 496.227 533.231 500.254ZM461.097 391.534C459.057 388.867 457.604 385.307 460.804 382.187C463.59 379.494 466.537 380.654 468.777 382.894C478.284 392.534 487.217 390.001 497.391 383.227C503.711 379.067 514.257 372.214 518.777 380.894C522.564 388.081 511.511 393.987 504.697 397.801C498.724 401.161 491.737 402.334 484.977 401.667C474.764 403.121 466.991 399.214 461.097 391.534ZM470.937 519.854C462.377 532.987 431.311 549.801 414.417 549.721C409.764 549.014 404.284 548.054 400.164 543.614C397.297 540.547 395.684 537.094 398.177 533.147C400.257 529.867 403.284 528.787 407.111 530.281C418.697 534.854 428.164 530.241 436.844 523.094C444.604 516.707 453.031 511.561 462.591 508.601C466.031 507.574 470.777 506.201 473.137 510.307C474.924 513.467 472.924 516.787 470.937 519.854ZM380.231 485.347C371.511 502.881 359.964 516.707 338.284 516.867C328.817 517.241 321.217 513.801 315.857 506.027C313.417 502.547 313.284 498.641 316.444 495.361C319.191 492.494 322.591 491.747 325.711 494.521C336.671 504.161 345.55 497.761 354.404 491.041C360.257 486.601 365.951 481.907 372.017 477.667C374.497 475.921 377.951 475.547 380.644 477.454C384.177 479.987 381.484 482.814 380.231 485.347ZM374.67 543.787C363.617 556.654 350.791 566.454 332.017 566.961C324.871 566.454 317.364 564.667 312.377 557.614C310.511 554.907 309.964 551.841 312.004 549.094C313.87 546.561 316.817 544.361 319.764 546.361C333.137 555.414 344.271 548.347 355.817 542.201C360.297 539.841 365.404 538.507 370.351 537.054C372.511 536.427 374.497 537.547 375.911 539.467C377.457 541.534 375.67 542.574 374.67 543.787ZM288.992 508.894C279.067 520.854 268.268 531.241 251.823 529.494C242.437 530.161 234.629 528.254 228.192 522.307C224.993 519.321 224.247 515.414 226.405 511.681C228.357 508.267 231.971 507.067 235.211 509.641C248.916 520.281 261.001 514.667 273.087 506.534C276.284 504.414 279.856 502.747 283.344 501.094C286.127 499.801 288.287 500.961 290.072 503.254C291.899 505.574 290.321 507.241 288.992 508.894ZM273.916 573.347C267.231 577.427 259.589 579.161 251.656 579.041C247.836 578.707 244.015 579.081 240.36 577.054C235.211 574.267 229.52 571.441 232.261 564.587C234.836 558.147 240.319 559.934 245.468 562.134C253.525 565.507 260.253 560.681 267.604 558.521C273.211 556.827 281.932 552.041 285.047 559.561C287.871 566.454 279.149 570.161 273.916 573.347ZM219.595 463.961C213.947 471.347 207.26 477.294 198.623 477.081C187.7 477.294 180.391 473.134 174.743 466.121C172.541 463.374 171.835 459.601 174.617 456.614C177.109 453.867 180.847 454.574 182.883 456.521C193.099 466.454 201.653 460.347 210.5 454.494C214.363 451.921 219.137 447.761 223.041 452.414C226.073 456.067 222.128 460.641 219.595 463.961ZM187.325 541.201C181.137 543.867 174.368 546.107 168.056 544.867C158.836 546.027 152.067 542.574 146.584 536.681C143.885 533.774 142.473 529.907 145.629 526.214C148.577 522.774 151.735 524.014 154.6 526.467C163.736 534.227 172.624 531.027 182.135 526.841C188.281 524.094 197.749 518.241 201.113 526.547C203.481 532.401 193.929 538.387 187.325 541.201ZM114.813 490.374C105.593 491.041 98.5332 486.801 93.8412 478.667C91.9306 475.427 92.3865 472.107 95.2532 469.187C98.4092 466.001 102.064 466.654 104.389 469.321C113.028 479.081 121.583 475.507 131.011 470.694C137.572 467.361 147.872 461.214 151.527 468.614C154.932 475.427 143.968 480.827 137.407 484.227C130.679 487.761 123.244 490.587 114.813 490.374ZM87.4038 417.534C85.3692 414.494 83.8732 411.387 87.2372 408.307C90.3105 405.441 93.4666 405.774 96.416 408.481C112.239 423.014 126.899 416.574 141.892 406.561C146.709 403.321 153.312 395.681 158.255 401.787C163.321 408.067 155.14 413.881 150.613 418.201C140.853 427.534 128.601 431.361 114.939 431.027C103.6 431.281 94.0892 427.254 87.4038 417.534ZM51.0639 352.907C49.6932 350.454 47.1186 347.681 50.7319 345.014C53.1826 343.267 55.7159 343.854 57.7506 345.894C69.0466 357.107 79.8039 354.401 90.7679 345.107C93.2172 343.027 96.956 342.187 100.277 341.441C103.185 340.787 106.341 340.987 108.335 344.107C110.245 347.094 109.497 350.041 107.712 352.574C100.776 362.294 91.6812 368.067 78.7239 367.814C67.5932 367.201 57.2105 364.001 51.0639 352.907ZM60.4919 256.107C67.3025 252.694 68.508 260.134 70.916 264.414C78.932 278.614 93.8825 283.214 108.625 276.001C113.651 273.547 118.468 270.547 123.66 268.521C126.857 267.267 130.969 263.747 134 268.681C136.492 272.801 133.917 276.201 130.928 278.854C120.296 288.414 107.836 293.854 93.5919 294.681C77.6025 293.521 65.3506 286.507 58.0826 272.134C55.2172 266.521 53.8465 259.427 60.4919 256.107ZM98.3265 136.201C102.853 133.587 106.341 136.041 108.833 140.441C115.229 151.774 124.241 152.481 135.164 147.041C141.352 143.934 150.572 137.454 154.433 145.014C158.795 153.521 148.163 158.507 141.684 162.867C136.244 166.521 129.807 167.974 125.031 167.387C108.957 167.187 97.3293 158.881 94.588 147.494C93.4253 142.681 94.2972 138.534 98.3265 136.201ZM176.32 198.414C178.313 197.374 181.387 195.961 183.464 198.534C185.249 200.787 184.336 203.321 182.965 205.641C175.863 217.681 150.779 231.801 136.949 231.467C121.251 230.014 108.833 223.294 101.773 208.721C99.6973 204.401 98.3266 199.081 103.6 196.001C109 192.854 112.115 197.001 115.188 200.947C128.644 218.187 138.237 220.054 157.3 209.294C163.653 205.721 169.8 201.734 176.32 198.414ZM159.708 83.254C162.449 80.8006 164.276 82.8406 166.353 84.3739C181.844 95.8806 184.668 95.5872 198.705 82.7472C202.401 79.3872 206.596 71.7073 212.161 77.9739C217.228 83.7473 211.663 89.5206 206.763 93.0139C199.037 98.5739 190.524 102.854 180.1 102.147C170.589 103.107 164.152 97.6673 159.044 90.2273C157.591 88.1073 157.216 85.414 159.708 83.254ZM235.46 142.307C238.367 149.041 230.767 152.601 225.908 155.894C221.505 158.841 216.272 159.707 212.743 159.254C199.411 159.174 191.355 153.814 186.163 143.547C184.252 139.774 184.668 136.947 188.032 134.587C191.52 132.094 194.179 134.494 195.673 136.947C202.028 147.374 209.877 147.707 219.885 142.227C224.661 139.614 231.888 134.121 235.46 142.307ZM238.989 68.5073C242.229 66.0939 245.136 67.7606 248.251 70.0006C266.192 82.8006 274.165 82.374 291.567 68.254C293.603 66.6406 295.679 65.0139 297.921 63.7339C301.077 61.9472 304.274 61.3206 307.265 64.4406C310.044 67.3073 308.39 69.9206 307.265 72.7472C302.198 85.8672 285.877 95.0939 263.867 94.8406C255.104 95.1339 245.552 89.4806 238.74 78.8139C236.539 75.3606 234.879 71.5339 238.989 68.5073ZM312.124 117.601C316.737 126.201 305.439 131.507 298.336 135.454C291.152 139.441 283.095 141.401 274.165 141.187C266.773 142.054 260.212 139.521 255.395 133.041C253.484 130.427 252.861 127.401 254.855 124.614C256.931 121.667 260.419 121.414 262.953 123.161C273.252 130.227 281.641 124.747 290.445 119.921C297.464 116.107 307.597 109.214 312.124 117.601ZM349.964 160.494C355.271 157.627 363.164 149.494 367.817 156.801C373.137 165.107 361.831 168.601 356.817 172.787C349.297 178.974 339.617 180.267 329.231 180.187C319.231 181.014 310.257 177.854 304.691 168.094C302.988 165.107 302.531 161.494 305.48 158.547C308.924 155.054 311.83 157.174 314.404 159.627C326.084 170.627 337.577 167.187 349.964 160.494ZM328.991 59.8672C331.937 54.1739 336.87 56.8006 341.404 58.5873C351.83 62.654 360.377 57.4139 369.311 52.9739C376.124 49.5739 385.511 40.8939 390.577 49.9073C395.191 58.0806 383.644 62.9073 376.991 66.7206C368.444 71.6273 359.017 74.774 349.044 75.654C344.017 76.1473 339.284 74.7739 335.511 72.0406C331.604 69.2539 325.751 66.0939 328.991 59.8672ZM416.537 93.054C421.017 99.8273 412.751 104.347 408.511 108.667C400.417 116.934 377.457 124.827 364.204 124.614C354.937 124.321 347.551 120.427 342.191 112.867C339.497 109.001 338.577 105.014 342.404 101.241C346.097 97.5739 348.671 100.854 351.284 102.814C361.791 110.787 372.804 107.254 383.431 103.641C389.084 101.774 393.897 97.534 399.457 95.254C404.951 93.014 411.59 85.614 416.537 93.054ZM452.244 130.014C455.737 129.347 459.137 129.307 461.551 132.627C464.537 136.654 460.924 138.987 459.017 141.481C447.644 156.721 430.897 160.081 413.044 162.081C410.431 161.614 407.271 161.614 404.577 160.454C398.631 157.841 391.071 154.441 393.444 146.961C395.644 139.814 402.617 143.801 407.937 145.014C416.99 147.081 424.884 143.467 432.391 139.067C438.711 135.374 444.897 131.427 452.244 130.014ZM442.951 88.654C444.817 85.494 447.511 85.6139 450.497 87.9472C455.697 91.9739 461.177 89.1073 466.497 87.9073C471.897 86.6939 477.204 84.8673 482.644 84.1206C485.977 83.6273 490.004 84.8272 491.124 88.4006C492.244 91.8939 488.551 93.6806 486.177 95.0939C478.751 99.6139 470.684 102.481 463.124 101.854C455.817 101.654 449.591 102.934 444.684 98.0006C441.991 95.2539 440.951 91.974 442.951 88.654ZM515.084 165.027C515.751 164.441 516.244 163.694 516.911 163.201C522.391 159.001 527.337 149.081 535.017 155.681C543.324 162.827 535.431 171.001 530.991 177.281C522.724 188.947 509.311 190.401 497.684 192.347C485.137 191.067 476.791 185.547 471.897 175.361C469.937 171.374 469.444 166.974 473.511 163.534C478.124 159.667 481.444 162.987 484.844 165.734C496.604 175.161 504.031 174.987 515.084 165.027ZM506.244 308.467C509.431 303.694 513.257 304.734 517.457 307.427C527.257 313.707 535.684 307.974 544.031 303.694C549.391 300.907 554.324 297.294 559.524 294.187C562.511 292.401 565.831 290.441 568.777 294.054C571.364 297.174 570.031 300.121 568.284 303.534C558.937 321.841 540.457 322.014 524.297 326.667C517.831 327.081 513.044 324.294 509.057 319.974C506.071 316.774 503.124 313.161 506.244 308.467ZM459.937 284.094C449.75 283.681 442.11 280.361 436.47 272.921C434.39 270.267 433.604 267.401 435.844 264.654C437.591 262.574 440.244 261.374 442.817 262.827C461.964 273.414 475.591 261.667 489.911 251.787C494.817 248.414 500.671 240.401 506.444 246.801C511.391 252.361 504.537 258.801 500.884 263.867C490.617 278.027 475.177 281.974 459.937 284.094ZM423.551 357.854C417.484 358.427 410.351 355.321 405.191 347.841C403.071 344.721 401.911 341.614 404.697 338.414C407.057 335.667 409.964 335.547 412.831 337.454C426.497 346.601 437.084 339.281 448.217 331.774C453.737 328.027 460.644 319.014 466.991 326.574C472.844 333.601 464.044 339.574 459.231 344.894C450.457 354.614 438.911 357.307 423.551 357.854ZM404.737 472.107C408.017 463.467 414.951 465.294 420.764 469.321C427.377 473.934 432.351 469.614 437.511 467.081C446.017 462.881 454.071 457.854 463.457 455.614C466.204 454.947 468.937 454.867 470.604 457.027C472.804 459.854 471.271 462.587 469.111 465.041C457.231 478.667 442.577 486.921 423.47 488.667C420.937 488.174 417.244 488.174 414.284 486.681C408.511 483.734 401.75 480.081 404.737 472.107ZM352.284 414.081C354.404 412.294 356.857 411.467 359.297 413.627C373.511 426.214 384.724 416.747 395.977 408.481C401.497 404.361 406.644 399.707 412.124 395.521C415.417 392.947 419.897 391.787 422.804 394.601C425.71 397.387 424.137 401.454 422.057 405.147C410.844 425.374 392.404 432.974 370.977 435.387C362.004 434.721 354.897 431.481 350.67 423.387C348.79 419.814 349.297 416.614 352.284 414.081ZM313.577 388.921C305.563 389.374 297.091 387.041 290.861 379.281C288.244 375.961 287.04 372.307 290.196 368.694C293.269 365.161 297.507 365.081 300.621 367.947C313.991 380.201 324.831 374.214 335.417 363.867C337.577 361.801 339.991 359.921 342.524 358.267C345.231 356.441 348.337 356.067 350.87 358.347C353.324 360.587 353.031 363.294 351.951 366.574C347.217 381.227 335.004 388.827 313.577 388.921ZM255.809 443.281C257.885 440.627 260.876 439.494 263.741 441.787C276.16 451.547 286.916 445.774 297.963 438.881C302.615 435.934 308.137 434.347 313.124 431.947C316.364 430.401 319.271 431.067 321.351 433.401C324.044 436.427 321.351 439.334 319.511 441.374C308.297 453.667 294.308 460.387 278.36 461.587C269.098 461.174 261.624 458.481 256.1 451.587C253.983 448.921 253.691 445.974 255.809 443.281ZM195.673 389.494C197.708 387.254 200.699 387.667 202.775 389.374C219.761 403.494 231.971 392.241 244.804 382.027C249.747 378.121 254.896 368.281 261.665 374.174C268.808 380.361 260.129 387.374 256.64 393.107C248.376 406.561 233.799 407.147 223.332 409.054C209.544 409.974 202.152 404.614 196.131 396.561C194.428 394.267 193.763 391.694 195.673 389.494ZM180.183 332.601C181.719 331.774 183.173 330.734 184.792 330.187C191.271 328.027 199.744 320.427 204.145 328.067C208.299 335.294 198.041 340.201 192.808 344.681C185.457 351.081 175.78 352.534 166.063 353.694C156.095 352.707 146.833 349.747 140.313 341.201C138.237 338.494 135.828 335.547 139.068 332.054C142.057 328.827 145.048 329.574 148.037 332.227C158.628 341.734 169.427 338.374 180.183 332.601ZM234.172 247.667C235.127 246.801 235.957 245.761 236.996 244.974C241.399 241.401 245.385 233.587 251.864 238.494C258.8 243.721 253.027 250.454 249.912 255.681C242.145 268.681 225.16 276.494 206.264 276.494C190.607 276.534 177.441 268.721 172.5 257.014C170.921 253.361 170.755 250.414 173.828 247.747C177.441 244.681 180.141 247.094 182.84 249.414C201.239 265.241 216.313 264.694 234.172 247.667ZM278.9 188.494C269.597 200.987 256.183 204.734 242.479 205.894C231.389 206.014 223.291 202.107 217.477 193.561C215.276 190.281 214.777 187.374 218.059 184.414C221.091 181.721 223.789 183.174 226.032 185.214C236.415 194.641 246.299 191.441 256.349 184.547C260.585 181.641 265.153 179.227 269.639 176.694C273.293 174.614 277.115 173.747 279.939 177.774C282.472 181.427 281.433 185.081 278.9 188.494ZM311.124 310.014C299.707 326.241 282.472 331.187 264.407 333.894C253.235 332.681 243.724 329.481 237.868 319.441C236.041 316.201 235.085 313.001 237.909 309.921C241.273 306.227 243.765 308.934 246.756 310.961C261.125 320.801 273.792 320.601 288.452 310.667C293.477 307.267 298.336 303.614 303.611 300.627C306.601 298.921 310.884 298.134 313.364 300.827C316.404 304.067 312.911 307.427 311.124 310.014ZM346.257 231.267C337.671 241.321 320.511 248.081 305.645 248.041C293.063 248.507 282.804 244.054 275.826 233.387C273.668 230.067 272.38 225.867 276.117 222.841C279.275 220.214 282.264 222.134 285.463 224.121C305.313 236.454 315.911 235.414 333.844 219.841C334.137 219.601 334.43 219.227 334.804 219.014C340.244 215.401 346.257 206.507 352.124 212.374C358.017 218.227 350.871 225.827 346.257 231.267ZM374.591 208.547C376.377 203.894 380.444 203.934 384.351 205.641C401.124 212.867 413.577 204.067 425.417 194.227C431.111 189.481 436.924 185.161 443.604 181.974C448.137 179.774 452.751 177.774 456.564 182.254C460.217 186.414 456.937 190.321 454.657 193.934C443.444 211.627 418.737 224.907 396.431 224.707C390.244 225.201 383.844 223.121 378.07 218.761C374.55 216.067 373.044 212.534 374.591 208.547ZM391.951 289.827C396.764 286.214 401.537 282.521 406.484 279.067C408.844 277.361 411.751 274.827 414.577 277.281C417.564 279.934 416.537 283.547 414.751 286.787C405.484 303.241 393.231 314.947 375.044 313.201C360.257 314.707 350.617 309.921 344.097 299.494C341.777 295.801 340.857 290.907 344.937 287.667C348.377 284.921 351.871 286.587 355.311 289.361C368.897 300.374 378.071 300.334 391.951 289.827ZM558.737 232.054C564.004 229.227 569.444 226.574 574.764 223.787C578.164 222.001 581.444 221.841 584.111 224.907C587.137 228.401 584.564 231.307 582.657 234.174C573.844 247.334 560.684 252.987 545.737 255.307C542.87 255.734 539.55 255.441 536.804 254.441C531.444 252.401 526.137 249.254 527.257 242.401C528.617 233.921 534.937 236.161 539.67 237.294C547.31 238.201 553.004 235.174 558.737 232.054ZM326.617 23.9473C153.147 22.7873 32.4999 153.561 28.9706 310.294C25.3159 470.481 153.852 600.68 311.67 601.761C478.244 602.92 611.31 473.934 612.27 310.387C613.137 153.814 484.684 25.0273 326.617 23.9473Z" fill="#CAD6E5"></path>
<path d="M454.658 193.934C443.444 211.627 418.738 224.907 396.431 224.707C390.244 225.2 383.844 223.12 378.071 218.76C374.551 216.067 373.044 212.534 374.591 208.547C376.378 203.894 380.444 203.934 384.351 205.64C401.124 212.867 413.578 204.067 425.418 194.227C431.111 189.48 436.924 185.16 443.604 181.974C448.138 179.774 452.751 177.774 456.564 182.254C460.218 186.414 456.938 190.32 454.658 193.934Z" fill="#434343"></path>
<path d="M249.913 255.68C242.146 268.68 225.161 276.493 206.265 276.493C190.607 276.533 177.442 268.72 172.501 257.013C170.922 253.36 170.755 250.413 173.829 247.747C177.442 244.68 180.142 247.093 182.841 249.413C201.239 265.24 216.314 264.693 234.173 247.667C235.127 246.8 235.958 245.76 236.997 244.973C241.399 241.4 245.386 233.587 251.865 238.493C258.801 243.72 253.027 250.453 249.913 255.68Z" fill="#434343"></path>
<path d="M530.991 177.28C522.725 188.947 509.311 190.4 497.685 192.347C485.138 191.067 476.791 185.547 471.898 175.36C469.938 171.374 469.445 166.974 473.511 163.534C478.125 159.667 481.445 162.987 484.845 165.734C496.605 175.16 504.031 174.987 515.085 165.027C515.751 164.44 516.245 163.694 516.911 163.2C522.391 159 527.338 149.08 535.018 155.68C543.325 162.827 535.431 171 530.991 177.28Z" fill="#434343"></path>
<path d="M470.938 519.854C462.378 532.987 431.311 549.8 414.418 549.72C409.764 549.014 404.284 548.054 400.164 543.614C397.298 540.547 395.684 537.094 398.178 533.147C400.258 529.867 403.284 528.787 407.111 530.28C418.698 534.854 428.164 530.24 436.844 523.094C444.604 516.707 453.031 511.56 462.591 508.6C466.031 507.574 470.778 506.2 473.138 510.307C474.924 513.467 472.924 516.787 470.938 519.854Z" fill="#434343"></path>
<path d="M182.966 205.64C175.863 217.68 150.779 231.8 136.95 231.467C121.251 230.013 108.834 223.293 101.774 208.72C99.698 204.4 98.3274 199.08 103.601 196C109.001 192.853 112.115 197 115.189 200.947C128.645 218.187 138.238 220.053 157.301 209.293C163.654 205.72 169.801 201.733 176.321 198.413C178.314 197.373 181.387 195.96 183.465 198.533C185.25 200.787 184.337 203.32 182.966 205.64Z" fill="#434343"></path>
<path d="M346.258 231.267C337.671 241.32 320.511 248.08 305.646 248.04C293.063 248.507 282.805 244.053 275.827 233.387C273.669 230.067 272.381 225.867 276.118 222.84C279.275 220.213 282.265 222.133 285.463 224.12C305.314 236.453 315.911 235.413 333.845 219.84C334.138 219.6 334.431 219.227 334.805 219.013C340.245 215.4 346.258 206.507 352.125 212.373C358.018 218.227 350.871 225.827 346.258 231.267Z" fill="#434343"></path>
<path d="M500.885 263.867C490.619 278.027 475.178 281.974 459.938 284.094C449.752 283.68 442.112 280.36 436.472 272.92C434.392 270.267 433.605 267.4 435.845 264.654C437.592 262.574 440.245 261.374 442.819 262.827C461.965 273.414 475.592 261.667 489.912 251.787C494.819 248.414 500.672 240.4 506.445 246.8C511.392 252.36 504.539 258.8 500.885 263.867Z" fill="#434343"></path>
<path d="M422.058 405.147C410.845 425.374 392.405 432.974 370.978 435.387C362.005 434.72 354.898 431.48 350.671 423.387C348.791 419.814 349.298 416.614 352.285 414.08C354.405 412.294 356.858 411.467 359.298 413.627C373.511 426.214 384.725 416.747 395.978 408.48C401.498 404.36 406.645 399.707 412.125 395.52C415.418 392.947 419.898 391.787 422.805 394.6C425.711 397.387 424.138 401.454 422.058 405.147Z" fill="#434343"></path>
<path d="M130.929 278.853C120.297 288.413 107.837 293.853 93.5929 294.68C77.6035 293.52 65.3516 286.507 58.0836 272.133C55.2182 266.52 53.8475 259.427 60.4929 256.107C67.3035 252.693 68.509 260.133 70.917 264.413C78.9329 278.613 93.8835 283.213 108.626 276C113.652 273.547 118.469 270.547 123.661 268.52C126.858 267.267 130.97 263.747 134.001 268.68C136.493 272.8 133.918 276.2 130.929 278.853Z" fill="#434343"></path>
<path d="M408.511 108.667C400.418 116.933 377.458 124.827 364.204 124.613C354.938 124.32 347.551 120.427 342.191 112.867C339.498 109 338.578 105.013 342.404 101.24C346.098 97.5732 348.671 100.853 351.285 102.813C361.791 110.787 372.804 107.253 383.431 103.64C389.084 101.773 393.898 97.5332 399.458 95.2532C404.951 93.0132 411.591 85.6132 416.538 93.0532C421.018 99.8266 412.751 104.347 408.511 108.667Z" fill="#434343"></path>
<path d="M414.751 286.787C405.484 303.24 393.231 314.947 375.044 313.2C360.257 314.707 350.617 309.92 344.097 299.494C341.777 295.8 340.857 290.907 344.937 287.667C348.377 284.92 351.871 286.587 355.311 289.36C368.897 300.374 378.071 300.334 391.951 289.827C396.764 286.214 401.537 282.52 406.484 279.067C408.844 277.36 411.751 274.827 414.577 277.28C417.564 279.934 416.537 283.547 414.751 286.787Z" fill="#434343"></path>
<path d="M380.231 485.347C371.511 502.88 359.965 516.707 338.285 516.867C328.818 517.24 321.218 513.8 315.858 506.027C313.418 502.547 313.285 498.64 316.445 495.36C319.191 492.494 322.591 491.747 325.711 494.52C336.671 504.16 345.551 497.76 354.405 491.04C360.258 486.6 365.951 481.907 372.018 477.667C374.498 475.92 377.951 475.547 380.645 477.454C384.178 479.987 381.485 482.814 380.231 485.347Z" fill="#434343"></path>
<path d="M553.245 437.92C541.791 452.374 527.498 461.974 506.111 462.347C502.671 462.134 497.018 461.467 493.151 456.614C490.085 452.787 487.711 448.68 491.165 443.734C494.658 438.787 498.885 438.507 503.285 442.027C509.351 446.894 514.538 444.147 519.605 440.574C527.418 435.134 535.938 431.107 544.565 427.294C548.431 425.587 551.965 424.96 554.991 428.707C557.938 432.4 555.165 435.507 553.245 437.92Z" fill="#434343"></path>
<path d="M311.125 310.013C299.707 326.24 282.473 331.187 264.407 333.893C253.235 332.68 243.725 329.48 237.869 319.44C236.042 316.2 235.086 313 237.91 309.92C241.274 306.227 243.766 308.933 246.757 310.96C261.126 320.8 273.793 320.6 288.453 310.667C293.478 307.267 298.337 303.613 303.612 300.627C306.602 298.92 310.885 298.133 313.365 300.827C316.405 304.067 312.911 307.427 311.125 310.013Z" fill="#434343"></path>
<path d="M307.266 72.7466C302.199 85.8666 285.878 95.0933 263.867 94.84C255.105 95.1333 245.553 89.4799 238.741 78.8133C236.539 75.3599 234.879 71.5333 238.99 68.5066C242.23 66.0933 245.137 67.7599 248.251 69.9999C266.193 82.7999 274.166 82.3733 291.567 68.2533C293.603 66.64 295.679 65.0133 297.922 63.7333C301.078 61.9466 304.275 61.32 307.266 64.44C310.045 67.3066 308.391 69.9199 307.266 72.7466Z" fill="#434343"></path>
<path d="M469.111 465.04C457.231 478.667 442.578 486.92 423.471 488.667C420.938 488.173 417.244 488.173 414.284 486.68C408.511 483.733 401.751 480.08 404.738 472.107C408.018 463.467 414.951 465.293 420.764 469.32C427.378 473.933 432.351 469.613 437.511 467.08C446.018 462.88 454.071 457.853 463.458 455.613C466.204 454.947 468.938 454.867 470.604 457.027C472.804 459.853 471.271 462.587 469.111 465.04Z" fill="#434343"></path>
<path d="M459.018 141.48C447.644 156.72 430.898 160.08 413.044 162.08C410.431 161.613 407.271 161.613 404.578 160.453C398.631 157.84 391.071 154.44 393.444 146.96C395.644 139.813 402.618 143.8 407.938 145.013C416.991 147.08 424.884 143.466 432.391 139.066C438.711 135.373 444.898 131.427 452.244 130.013C455.738 129.347 459.138 129.307 461.551 132.627C464.538 136.653 460.924 138.987 459.018 141.48Z" fill="#434343"></path>
<path d="M150.613 418.2C140.853 427.533 128.601 431.36 114.939 431.027C103.6 431.28 94.0894 427.253 87.404 417.533C85.3694 414.493 83.8734 411.387 87.2374 408.307C90.3107 405.44 93.4668 405.773 96.4161 408.48C112.239 423.013 126.899 416.573 141.892 406.56C146.709 403.32 153.312 395.68 158.255 401.787C163.321 408.067 155.14 413.88 150.613 418.2Z" fill="#434343"></path>
<path d="M141.684 162.867C136.244 166.52 129.807 167.974 125.031 167.387C108.957 167.187 97.3294 158.88 94.5881 147.494C93.4254 142.68 94.2973 138.533 98.3266 136.2C102.853 133.587 106.341 136.04 108.833 140.44C115.229 151.774 124.241 152.48 135.164 147.04C141.352 143.934 150.572 137.454 154.433 145.014C158.795 153.52 148.163 158.507 141.684 162.867Z" fill="#434343"></path>
<path d="M568.285 303.533C558.938 321.84 540.458 322.013 524.298 326.667C517.832 327.08 513.045 324.293 509.058 319.973C506.072 316.773 503.125 313.16 506.245 308.467C509.432 303.693 513.258 304.733 517.458 307.427C527.258 313.707 535.685 307.973 544.032 303.693C549.392 300.907 554.325 297.293 559.525 294.187C562.512 292.4 565.832 290.44 568.778 294.053C571.365 297.173 570.032 300.12 568.285 303.533Z" fill="#434343"></path>
<path d="M256.641 393.107C248.377 406.56 233.799 407.147 223.333 409.053C209.545 409.973 202.153 404.613 196.131 396.56C194.429 394.267 193.763 391.693 195.674 389.493C197.709 387.253 200.699 387.667 202.775 389.373C219.762 403.493 231.971 392.24 244.805 382.027C249.747 378.12 254.897 368.28 261.666 374.173C268.809 380.36 260.13 387.373 256.641 393.107Z" fill="#434343"></path>
<path d="M459.231 344.894C450.458 354.614 438.911 357.307 423.551 357.853C417.484 358.427 410.351 355.32 405.191 347.84C403.071 344.72 401.911 341.613 404.698 338.413C407.058 335.667 409.964 335.547 412.831 337.453C426.498 346.6 437.084 339.28 448.218 331.774C453.738 328.027 460.644 319.014 466.991 326.574C472.844 333.6 464.044 339.574 459.231 344.894Z" fill="#434343"></path>
<path d="M351.951 366.573C347.218 381.227 335.004 388.827 313.578 388.92C305.563 389.373 297.091 387.04 290.862 379.28C288.244 375.96 287.04 372.307 290.196 368.693C293.27 365.16 297.507 365.08 300.622 367.947C313.991 380.2 324.831 374.213 335.418 363.867C337.578 361.8 339.991 359.92 342.524 358.267C345.231 356.44 348.337 356.067 350.871 358.347C353.324 360.587 353.031 363.293 351.951 366.573Z" fill="#434343"></path>
<path d="M278.901 188.494C269.598 200.987 256.184 204.734 242.48 205.894C231.39 206.014 223.292 202.107 217.478 193.56C215.277 190.28 214.778 187.374 218.06 184.414C221.092 181.72 223.79 183.174 226.033 185.214C236.416 194.64 246.3 191.44 256.35 184.547C260.586 181.64 265.154 179.227 269.64 176.694C273.294 174.614 277.116 173.747 279.94 177.774C282.473 181.427 281.434 185.08 278.901 188.494Z" fill="#434343"></path>
<path d="M582.658 234.174C573.845 247.334 560.685 252.987 545.738 255.307C542.872 255.734 539.552 255.44 536.805 254.44C531.445 252.4 526.138 249.254 527.258 242.4C528.618 233.92 534.938 236.16 539.672 237.294C547.312 238.2 553.005 235.173 558.738 232.053C564.005 229.227 569.445 226.573 574.765 223.787C578.165 222 581.445 221.84 584.112 224.907C587.138 228.4 584.565 231.307 582.658 234.174Z" fill="#434343"></path>
<path d="M192.809 344.68C185.458 351.08 175.781 352.534 166.063 353.694C156.095 352.707 146.834 349.747 140.314 341.2C138.238 338.494 135.829 335.547 139.069 332.054C142.058 328.827 145.049 329.574 148.038 332.227C158.629 341.734 169.427 338.374 180.183 332.6C181.719 331.774 183.174 330.734 184.793 330.187C191.271 328.027 199.745 320.427 204.146 328.067C208.299 335.294 198.042 340.2 192.809 344.68Z" fill="#434343"></path>
<path d="M319.511 441.373C308.298 453.667 294.309 460.387 278.361 461.587C269.099 461.173 261.625 458.48 256.101 451.587C253.983 448.92 253.691 445.973 255.81 443.28C257.886 440.627 260.877 439.493 263.742 441.787C276.161 451.547 286.917 445.773 297.963 438.88C302.615 435.933 308.138 434.347 313.125 431.947C316.365 430.4 319.271 431.067 321.351 433.4C324.045 436.427 321.351 439.333 319.511 441.373Z" fill="#434343"></path>
<path d="M374.671 543.787C363.618 556.654 350.791 566.454 332.018 566.96C324.871 566.454 317.365 564.667 312.378 557.614C310.511 554.907 309.964 551.84 312.004 549.094C313.871 546.56 316.818 544.36 319.764 546.36C333.138 555.414 344.271 548.347 355.818 542.2C360.298 539.84 365.404 538.507 370.351 537.054C372.511 536.427 374.498 537.547 375.911 539.467C377.458 541.534 375.671 542.574 374.671 543.787Z" fill="#434343"></path>
<path d="M288.993 508.894C279.067 520.854 268.269 531.24 251.823 529.494C242.438 530.16 234.63 528.254 228.193 522.307C224.994 519.32 224.247 515.414 226.406 511.68C228.358 508.267 231.971 507.067 235.211 509.64C248.917 520.28 261.002 514.667 273.087 506.534C276.285 504.414 279.857 502.747 283.345 501.094C286.127 499.8 288.287 500.96 290.073 503.254C291.899 505.574 290.322 507.24 288.993 508.894Z" fill="#434343"></path>
<path d="M107.713 352.574C100.777 362.294 91.6823 368.067 78.725 367.814C67.5943 367.2 57.2116 364 51.0649 352.907C49.6943 350.454 47.1196 347.68 50.733 345.014C53.1836 343.267 55.717 343.854 57.7516 345.894C69.0476 357.107 79.805 354.4 90.769 345.107C93.2183 343.027 96.957 342.187 100.278 341.44C103.186 340.787 106.342 340.987 108.336 344.107C110.246 347.094 109.498 350.04 107.713 352.574Z" fill="#434343"></path>
<path d="M376.991 66.7199C368.444 71.6265 359.018 74.7732 349.045 75.6532C344.018 76.1465 339.285 74.7732 335.511 72.0399C331.605 69.2532 325.751 66.0932 328.991 59.8665C331.938 54.1732 336.871 56.7999 341.404 58.5865C351.831 62.6532 360.378 57.4132 369.311 52.9732C376.125 49.5732 385.511 40.8932 390.578 49.9065C395.191 58.0799 383.644 62.9065 376.991 66.7199Z" fill="#434343"></path>
<path d="M533.231 500.253C526.258 509.187 517.538 514.92 503.538 515.373C498.725 514.88 491.325 513.333 490.125 505.08C489.005 497.307 495.111 496.147 501.671 494.653C509.058 492.947 515.711 488.333 522.938 485.6C526.925 484.107 531.818 483.227 534.898 487.307C538.298 491.787 536.351 496.227 533.231 500.253Z" fill="#434343"></path>
<path d="M580.792 374.88C573.805 379.867 565.218 381.933 556.698 383.107C550.845 382.52 545.698 380.693 541.338 376.787C538.338 374.173 537.805 370.76 539.085 367.4C540.458 363.747 544.485 363.867 546.858 365.04C557.192 370.187 564.832 363.587 573.312 359.973C581.072 356.693 593.032 349.413 596.605 356.44C600.965 365.08 587.645 369.973 580.792 374.88Z" fill="#434343"></path>
<path d="M356.818 172.787C349.298 178.974 339.618 180.267 329.231 180.187C319.231 181.014 310.258 177.854 304.691 168.094C302.988 165.107 302.531 161.494 305.48 158.547C308.924 155.054 311.831 157.174 314.404 159.627C326.084 170.627 337.578 167.187 349.964 160.494C355.271 157.627 363.164 149.494 367.818 156.8C373.138 165.107 361.831 168.6 356.818 172.787Z" fill="#434343"></path>
<path d="M298.336 135.453C291.152 139.44 283.095 141.4 274.165 141.187C266.773 142.053 260.212 139.52 255.395 133.04C253.484 130.427 252.862 127.4 254.855 124.613C256.931 121.667 260.419 121.413 262.953 123.16C273.252 130.227 281.641 124.747 290.445 119.92C297.464 116.107 307.597 109.213 312.124 117.6C316.737 126.2 305.439 131.507 298.336 135.453Z" fill="#434343"></path>
<path d="M137.407 484.227C130.679 487.76 123.244 490.587 114.814 490.373C105.594 491.04 98.5335 486.8 93.8415 478.667C91.9309 475.427 92.3868 472.107 95.2535 469.187C98.4095 466 102.064 466.653 104.39 469.32C113.028 479.08 121.583 475.507 131.011 470.693C137.572 467.36 147.872 461.213 151.527 468.613C154.932 475.427 143.968 480.827 137.407 484.227Z" fill="#434343"></path>
<path d="M504.698 397.8C498.724 401.16 491.738 402.334 484.978 401.667C474.764 403.12 466.991 399.214 461.098 391.534C459.058 388.867 457.604 385.307 460.804 382.187C463.591 379.494 466.538 380.654 468.778 382.894C478.284 392.534 487.218 390 497.391 383.227C503.711 379.067 514.258 372.214 518.778 380.894C522.564 388.08 511.511 393.987 504.698 397.8Z" fill="#434343"></path>
<path d="M187.326 541.2C181.138 543.867 174.369 546.107 168.057 544.867C158.837 546.027 152.067 542.574 146.585 536.68C143.886 533.774 142.474 529.907 145.63 526.214C148.578 522.774 151.735 524.014 154.601 526.467C163.737 534.227 172.625 531.027 182.135 526.84C188.282 524.094 197.75 518.24 201.114 526.547C203.482 532.4 193.93 538.387 187.326 541.2Z" fill="#434343"></path>
<path d="M273.917 573.347C267.231 577.427 259.59 579.16 251.657 579.04C247.837 578.707 244.015 579.08 240.36 577.053C235.211 574.267 229.521 571.44 232.262 564.587C234.837 558.147 240.319 559.933 245.469 562.133C253.526 565.507 260.254 560.68 267.604 558.52C273.211 556.827 281.933 552.04 285.047 559.56C287.871 566.453 279.15 570.16 273.917 573.347Z" fill="#434343"></path>
<path d="M219.595 463.96C213.947 471.347 207.261 477.294 198.623 477.08C187.701 477.294 180.391 473.134 174.743 466.12C172.542 463.374 171.835 459.6 174.618 456.614C177.11 453.867 180.847 454.574 182.883 456.52C193.099 466.454 201.654 460.347 210.501 454.494C214.363 451.92 219.138 447.76 223.042 452.414C226.074 456.067 222.129 460.64 219.595 463.96Z" fill="#434343"></path>
<path d="M225.909 155.893C221.506 158.84 216.273 159.707 212.743 159.253C199.411 159.173 191.355 153.813 186.163 143.547C184.253 139.773 184.669 136.947 188.033 134.587C191.521 132.093 194.179 134.493 195.674 136.947C202.029 147.373 209.878 147.707 219.886 142.227C224.662 139.613 231.889 134.12 235.461 142.307C238.367 149.04 230.767 152.6 225.909 155.893Z" fill="#434343"></path>
<path d="M206.763 93.0133C199.037 98.5733 190.524 102.853 180.1 102.147C170.589 103.107 164.152 97.6667 159.044 90.2267C157.591 88.1067 157.216 85.4134 159.708 83.2534C162.449 80.8 164.276 82.84 166.353 84.3734C181.844 95.88 184.668 95.5867 198.705 82.7467C202.401 79.3867 206.596 71.7067 212.161 77.9734C217.228 83.7467 211.663 89.52 206.763 93.0133Z" fill="#434343"></path>
<path d="M486.178 95.0935C478.751 99.6135 470.684 102.48 463.124 101.854C455.818 101.654 449.591 102.933 444.684 98.0001C441.991 95.2535 440.951 91.9735 442.951 88.6535C444.818 85.4935 447.511 85.6135 450.498 87.9468C455.698 91.9735 461.178 89.1068 466.498 87.9068C471.898 86.6935 477.204 84.8669 482.644 84.1202C485.978 83.6269 490.004 84.8268 491.124 88.4001C492.244 91.8935 488.551 93.6802 486.178 95.0935Z" fill="#434343"></path>
</g>
<defs>
<clipPath id="clip0_1_336">
<rect width="635.35" height="626.602" fill="white"></rect>
</clipPath>
</defs>
</svg>